<?xml version="1.0" encoding="UTF-8"?>
<svg width="24px" height="24px" viewBox="0 0 24 24" version="1.1" xmlns="http://www.w3.org/2000/svg" xmlns:xlink="http://www.w3.org/1999/xlink">
    <g id="Bold" stroke="none" stroke-width="1" fill="none" fill-rule="evenodd">
        <rect id="Rectangle" x="0" y="0" width="24" height="24"></rect>
        <path d="M4.95588235,4.70588235 C4.95588235,4.29166879 5.29166879,3.95588235 5.70588235,3.95588235 L14.1294118,3.95588235 C16.3733122,3.95588235 18.1923529,5.77492308 18.1923529,8.01882353 L18.1923529,8.96852273 C18.179181,10.1253626 17.6834932,11.1647593 16.8979054,11.8962857 C17.2988431,12.0914603 17.6689045,12.3536262 17.9905803,12.675302 C18.7525296,13.4372513 19.1805882,14.4706763 19.1805882,15.5482353 L19.1805882,16.4894118 C19.1805882,17.5669708 18.7525296,18.6003957 17.9905803,19.362345 C17.228631,20.1242943 16.1952061,20.5523529 15.1176471,20.5523529 L5.70588235,20.5523529 C5.29166879,20.5523529 4.95588235,20.2165665 4.95588235,19.8023529 L4.95588235,4.70588235 Z M15.1176471,12.9852941 L6.45588235,12.9852941 L6.45588235,19.0523529 L15.1176471,19.0523529 C15.7973813,19.0523529 16.4492754,18.7823296 16.9299201,18.3016849 C17.4105649,17.8210401 17.6805882,17.169146 17.6805882,16.4894118 L17.6805882,15.5482353 C17.6805882,14.868501 17.4105649,14.2166069 16.9299201,13.7359622 C16.4492754,13.2553175 15.7973813,12.9852941 15.1176471,12.9852941 Z M14.1294118,5.45588235 L6.45588235,5.45588235 L6.45588235,11.4852941 L14.1294602,11.4852941 C15.5336373,11.4853848 16.6764448,10.3555637 16.6923529,8.96 L16.6923529,8.01882353 C16.6923529,6.6033502 15.5448851,5.45588235 14.1294118,5.45588235 Z" id="Combined-Shape"></path>
    </g>
</svg>
