<svg viewBox="0 0 24 24" xmlns="http://www.w3.org/2000/svg"><path stroke="none" fill-rule="evenodd" d="M3.8,17.382 C4.79411255,17.382 5.6,18.1878875 5.6,19.182 C5.6,20.1761125 4.79411255,20.982 3.8,20.982 C2.80588745,20.982 2,20.1761125 2,19.182 C2,18.1878875 2.80588745,17.382 3.8,17.382 Z M20.882,18.441 C21.2962136,18.441 21.632,18.7767864 21.632,19.191 C21.632,19.6052136 21.2962136,19.941 20.882,19.941 L9.164,19.941 C8.74978644,19.941 8.414,19.6052136 8.414,19.191 C8.414,18.7767864 8.74978644,18.441 9.164,18.441 L20.882,18.441 Z M3.8,10.191 C4.79411255,10.191 5.6,10.9968875 5.6,11.991 C5.6,12.9851125 4.79411255,13.791 3.8,13.791 C2.80588745,13.791 2,12.9851125 2,11.991 C2,10.9968875 2.80588745,10.191 3.8,10.191 Z M20.882,11.241 C21.2962136,11.241 21.632,11.5767864 21.632,11.991 C21.632,12.4052136 21.2962136,12.741 20.882,12.741 L9.164,12.741 C8.74978644,12.741 8.414,12.4052136 8.414,11.991 C8.414,11.5767864 8.74978644,11.241 9.164,11.241 L20.882,11.241 Z M3.8,3 C4.79411255,3 5.6,3.80588745 5.6,4.8 C5.6,5.79411255 4.79411255,6.6 3.8,6.6 C2.80588745,6.6 2,5.79411255 2,4.8 C2,3.80588745 2.80588745,3 3.8,3 Z M20.882,4.041 C21.2962136,4.041 21.632,4.37678644 21.632,4.791 C21.632,5.20521356 21.2962136,5.541 20.882,5.541 L9.164,5.541 C8.74978644,5.541 8.414,5.20521356 8.414,4.791 C8.414,4.37678644 8.74978644,4.041 9.164,4.041 L20.882,4.041 Z" id="Combined-Shape"></path></svg>