<?xml version="1.0" encoding="UTF-8"?>
<svg width="24px" height="24px" viewBox="0 0 24 24" version="1.1" xmlns="http://www.w3.org/2000/svg" xmlns:xlink="http://www.w3.org/1999/xlink">
    <g id="Caption" stroke="none" stroke-width="1" fill="none" fill-rule="evenodd">
        <rect id="Rectangle" x="0" y="0" width="24" height="24"></rect>
        <path d="M18,5.25 C18.9671041,5.25 19.75,6.03238552 19.75,6.99934811 L19.75,6.99934811 L19.75,15.9934811 C19.75,16.9604437 18.9671041,17.7428292 18,17.7428292 L18,17.7428292 L14.401,17.742 L12.6239125,20.4070865 C12.348226,20.8203466 11.7645926,20.8498652 11.4449137,20.4956422 L11.4449137,20.4956422 L11.3760875,20.4070865 L9.598,17.742 L6,17.7428292 C5.08125109,17.7428292 4.32875011,17.0367263 4.25579688,16.1370664 L4.25579688,16.1370664 L4.25,15.9934811 L4.25,6.99934811 C4.25,6.03238552 5.03289588,5.25 6,5.25 L6,5.25 Z M18,6.75 L6,6.75 C5.86110412,6.75 5.75,6.86103169 5.75,6.99934811 L5.75,6.99934811 L5.75,15.9934811 C5.75,16.1317975 5.86110412,16.2428292 6,16.2428292 L6,16.2428292 L10,16.2428292 C10.2506849,16.2428292 10.4847947,16.3680757 10.6239125,16.5766162 L10.6239125,16.5766162 L11.999,18.639 L13.3760875,16.5766162 C13.4953313,16.3978672 13.6843652,16.2803138 13.893807,16.250375 L13.893807,16.250375 L14,16.2428292 L18,16.2428292 C18.1388959,16.2428292 18.25,16.1317975 18.25,15.9934811 L18.25,15.9934811 L18.25,6.99934811 C18.25,6.86103169 18.1388959,6.75 18,6.75 L18,6.75 Z M9,10 C9.553,10 10,10.4467086 10,10.9993481 C10,11.5519876 9.553,11.9986962 9,11.9986962 C8.447,11.9986962 8,11.5519876 8,10.9993481 C8,10.4467086 8.447,10 9,10 Z M12,10 C12.553,10 13,10.4467086 13,10.9993481 C13,11.5519876 12.553,11.9986962 12,11.9986962 C11.447,11.9986962 11,11.5519876 11,10.9993481 C11,10.4467086 11.447,10 12,10 Z M15,10 C15.553,10 16,10.4467086 16,10.9993481 C16,11.5519876 15.553,11.9986962 15,11.9986962 C14.447,11.9986962 14,11.5519876 14,10.9993481 C14,10.4467086 14.447,10 15,10 Z" id="Combined-Shape" fill="#3366FF"></path>
    </g>
</svg>
