<?xml version="1.0" encoding="UTF-8"?>
<svg width="24px" height="24px" viewBox="0 0 24 24" version="1.1" xmlns="http://www.w3.org/2000/svg" xmlns:xlink="http://www.w3.org/1999/xlink">
    <g id="icon-/-main-/-copy" stroke="none" stroke-width="1" fill="none" fill-rule="evenodd">
        <rect id="Rectangle" x="0" y="0" width="24" height="24"></rect>
        <path d="M14.4296296,7.08749674 C15.5349541,7.08749674 16.4833333,7.8639796 16.4833333,8.90416341 L16.4833333,18.5041634 C16.4833333,19.5443472 15.5349541,20.3208301 14.4296296,20.3208301 L5.3037037,20.3208301 C4.1983792,20.3208301 3.25,19.5443472 3.25,18.5041634 L3.25,8.90416341 C3.25,7.8639796 4.1983792,7.08749674 5.3037037,7.08749674 L14.4296296,7.08749674 Z M14.4296296,8.58749674 L5.3037037,8.58749674 C4.96803226,8.58749674 4.75,8.76601006 4.75,8.90416341 L4.75,18.5041634 C4.75,18.6423168 4.96803226,18.8208301 5.3037037,18.8208301 L14.4296296,18.8208301 C14.7653011,18.8208301 14.9833333,18.6423168 14.9833333,18.5041634 L14.9833333,8.90416341 C14.9833333,8.76601006 14.7653011,8.58749674 14.4296296,8.58749674 Z M18.2696296,3.25 C19.3984909,3.25 20.3233333,4.1425326 20.3233333,5.25728931 L20.3233333,15.7333333 C20.3233333,16.1475469 19.9875469,16.4833333 19.5733333,16.4833333 C19.1591198,16.4833333 18.8233333,16.1475469 18.8233333,15.7333333 L18.8233333,5.25728931 C18.8233333,4.98312973 18.5817643,4.75 18.2696296,4.75 L7.84,4.75 C7.42578644,4.75 7.09,4.41421356 7.09,4 C7.09,3.58578644 7.42578644,3.25 7.84,3.25 L18.2696296,3.25 Z" id="Combined-Shape" fill="#2B2B2B"></path>
    </g>
</svg>
