<!-- Generated by IcoMoon.io -->
<svg version="1.1" xmlns="http://www.w3.org/2000/svg" width="1024" height="1024" viewBox="0 0 1024 1024">
<title></title>
<g id="icomoon-ignore">
</g>
<path d="M202.667 316.857c0 17.673-14.327 32-32 32s-32-14.327-32-32v-97.46c0-44.626 36.128-80.73 80.762-80.73h97.524c17.673 0 32 14.327 32 32s-14.327 32-32 32h-97.524c-9.297 0-16.762 7.46-16.762 16.73v97.46zM707.048 202.667c-17.673 0-32-14.327-32-32s14.327-32 32-32h97.524c44.634 0 80.762 36.105 80.762 80.73v97.46c0 17.673-14.327 32-32 32s-32-14.327-32-32v-97.46c0-9.27-7.465-16.73-16.762-16.73h-97.524zM821.333 706.698c0-17.673 14.327-32 32-32s32 14.327 32 32v97.46c0 44.626-36.128 80.73-80.762 80.73h-97.524c-17.673 0-32-14.327-32-32s14.327-32 32-32h97.524c9.297 0 16.762-7.46 16.762-16.73v-97.46zM316.952 820.888c17.673 0 32 14.327 32 32s-14.327 32-32 32h-97.524c-44.634 0-80.762-36.105-80.762-80.73v-97.46c0-17.673 14.327-32 32-32s32 14.327 32 32v97.46c0 9.27 7.465 16.73 16.762 16.73h97.524z"></path>
</svg>
