<?xml version="1.0" encoding="UTF-8"?>
<svg width="24px" height="24px" viewBox="0 0 24 24" version="1.1" xmlns="http://www.w3.org/2000/svg" xmlns:xlink="http://www.w3.org/1999/xlink">
    <!-- Generator: Sketch 60.1 (88133) - https://sketch.com -->
    <title>Delete</title>
    <desc>Created with Sketch.</desc>
    <g id="Delete" stroke="none" stroke-width="1" fill="none" fill-rule="evenodd">
        <rect id="Rectangle-Copy-5" x="0" y="0" width="24" height="24"></rect>
        <path d="M14.0512821,3.25 C15.0507068,3.25 15.8269231,4.11436289 15.8269231,5.14211213 L15.826,6.676 L20,6.67633638 C20.4142136,6.67633638 20.75,7.01212281 20.75,7.42633638 C20.75,7.84054994 20.4142136,8.17633638 20,8.17633638 L18.1759655,8.17615314 C18.2472781,8.29092321 18.2884615,8.42636644 18.2884615,8.57142857 L18.2884615,18.8504377 C18.2884615,19.8641311 17.5785066,20.7425498 16.6153846,20.7425498 L7.38461538,20.7425498 C6.42149336,20.7425498 5.71153846,19.8641311 5.71153846,18.8504377 L5.71153846,8.57142857 C5.71153846,8.42636644 5.7527219,8.29092321 5.82403454,8.17615314 L4,8.17633638 C3.58578644,8.17633638 3.25,7.84054994 3.25,7.42633638 C3.25,7.01212281 3.58578644,6.67633638 4,6.67633638 L8.173,6.676 L8.17307692,5.14211213 C8.17307692,4.11436289 8.94929321,3.25 9.94871795,3.25 L14.0512821,3.25 Z M16.9009576,8.17615314 L7.09904238,8.17615314 C7.17035502,8.29092321 7.21153846,8.42636644 7.21153846,8.57142857 L7.21153846,18.8504377 C7.21153846,19.0976361 7.32866049,19.2425498 7.38461538,19.2425498 L16.6153846,19.2425498 C16.6713395,19.2425498 16.7884615,19.0976361 16.7884615,18.8504377 L16.7884615,8.57142857 C16.7884615,8.42636644 16.829645,8.29092321 16.9009576,8.17615314 Z M13.8461538,11.2477649 C14.2603674,11.2477649 14.5961538,11.5835514 14.5961538,11.9977649 L14.5961538,16.5662134 C14.5961538,16.980427 14.2603674,17.3162134 13.8461538,17.3162134 C13.4319403,17.3162134 13.0961538,16.980427 13.0961538,16.5662134 L13.0961538,11.9977649 C13.0961538,11.5835514 13.4319403,11.2477649 13.8461538,11.2477649 Z M10.1538462,12.3898771 C10.5680597,12.3898771 10.9038462,12.7256635 10.9038462,13.1398771 L10.9038462,16.5662134 C10.9038462,16.980427 10.5680597,17.3162134 10.1538462,17.3162134 C9.73963259,17.3162134 9.40384615,16.980427 9.40384615,16.5662134 L9.40384615,13.1398771 C9.40384615,12.7256635 9.73963259,12.3898771 10.1538462,12.3898771 Z M14.0512821,4.75 L9.94871795,4.75 C9.81583499,4.75 9.67307692,4.90896958 9.67307692,5.14211213 L9.673,6.676 L14.326,6.676 L14.3269231,5.14211213 C14.3269231,4.90896958 14.184165,4.75 14.0512821,4.75 Z" id="Combined-Shape"></path>
    </g>
</svg>