<?xml version="1.0" encoding="utf-8"?>
<svg version="1.1" xmlns="http://www.w3.org/2000/svg" xmlns:xlink="http://www.w3.org/1999/xlink" x="0px" y="0px"
   viewBox="0 0 24 24" style="enable-background:new 0 0 24 24;" xml:space="preserve">
  <g fill="#2B2B2B">
    <path class="ck-icon__selected-indicator" d="M8.62,3.75H3.38c-0.9,0-1.63,0.73-1.63,1.63v5.24c0,0.9,0.73,1.63,1.63,1.63h5.24c0.9,0,1.63-0.73,1.63-1.63
      V5.38C10.25,4.48,9.52,3.75,8.62,3.75z M8.75,10.62c0,0.07-0.06,0.13-0.13,0.13H3.38c-0.07,0-0.13-0.06-0.13-0.13V5.38
      c0-0.07,0.06-0.13,0.13-0.13h5.24c0.07,0,0.13,0.06,0.13,0.13V10.62z"/>
    <path class="ck-icon__selected-indicator" d="M8.62,13.75H3.38c-0.9,0-1.63,0.73-1.63,1.63v5.24c0,0.9,0.73,1.63,1.63,1.63h5.24c0.9,0,1.63-0.73,1.63-1.63
      v-5.24C10.25,14.48,9.52,13.75,8.62,13.75z M8.75,20.62c0,0.07-0.06,0.13-0.13,0.13H3.38c-0.07,0-0.13-0.06-0.13-0.13v-5.24
      c0-0.07,0.06-0.13,0.13-0.13h5.24c0.07,0,0.13,0.06,0.13,0.13V20.62z"/>
    <path class="ck-icon__selected-indicator" d="M18.62,13.75h-5.24c-0.9,0-1.63,0.73-1.63,1.63v5.24c0,0.9,0.73,1.63,1.63,1.63h5.24
      c0.9,0,1.63-0.73,1.63-1.63v-5.24C20.25,14.48,19.52,13.75,18.62,13.75z M18.75,20.62c0,0.07-0.06,0.13-0.13,0.13h-5.24
      c-0.07,0-0.13-0.06-0.13-0.13v-5.24c0-0.07,0.06-0.13,0.13-0.13h5.24c0.07,0,0.13,0.06,0.13,0.13V20.62z"/>
    <path class="ck-icon__selected-indicator" d="M20.62,1.75h-7.24c-0.9,0-1.63,0.73-1.63,1.63v7.24c0,0.9,0.73,1.63,1.63,1.63h7.24
      c0.9,0,1.63-0.73,1.63-1.63V3.38C22.25,2.48,21.52,1.75,20.62,1.75z M20.75,10.62c0,0.07-0.06,0.13-0.13,0.13h-7.24
      c-0.07,0-0.13-0.06-0.13-0.13V3.38c0-0.07,0.06-0.13,0.13-0.13h7.24c0.07,0,0.13,0.06,0.13,0.13V10.62z"/>
  </g>
</svg>
