<svg width="24px" height="24px" viewBox="0 0 24 24" version="1.1" xmlns="http://www.w3.org/2000/svg" xmlns:xlink="http://www.w3.org/1999/xlink">
    <g id="icon-/-main-/-Embed-" stroke="none" stroke-width="1" fill="none" fill-rule="evenodd">
        <g id="Group-2">
            <g id="Group">
                <rect id="Rectangle-Copy" x="0" y="0" width="24" height="24"></rect>
                <path d="M13.776062,6.75 L9.925354,17.25" id="Path-12" stroke="#2B2B2B" stroke-width="1.5" stroke-linecap="round" fill-rule="nonzero"></path>
                <path d="M20.1894859,12 L16.2197831,7.46379555 C15.926874,7.12908646 15.9267192,6.58623882 16.2194374,6.2513114 C16.5121555,5.91638398 16.9869002,5.91620698 17.2798093,6.25091607 L21.7802169,11.3935603 C22.073261,11.7284237 22.073261,12.2715763 21.7802169,12.6064397 L17.2798093,17.7490839 C16.9869002,18.083793 16.5121555,18.083616 16.2194374,17.7486886 C15.9267192,17.4137612 15.926874,16.8709135 16.2197831,16.5362045 L20.1894859,12 Z" id="Stroke-83" fill="#2B2B2B" transform="translate(19.000000, 12.000000) rotate(-360.000000) translate(-19.000000, -12.000000) "></path>
                <path d="M6.18948586,12 L2.21978313,7.46379555 C1.92687403,7.12908646 1.92671924,6.58623882 2.21943739,6.2513114 C2.51215555,5.91638398 2.98690024,5.91620698 3.27980934,6.25091607 L7.78021687,11.3935603 C8.07326104,11.7284237 8.07326104,12.2715763 7.78021687,12.6064397 L3.27980934,17.7490839 C2.98690024,18.083793 2.51215555,18.083616 2.21943739,17.7486886 C1.92671924,17.4137612 1.92687403,16.8709135 2.21978313,16.5362045 L6.18948586,12 Z" id="Stroke-83-Copy-3" fill="#2B2B2B" transform="translate(5.000000, 12.000000) scale(-1, 1) rotate(-360.000000) translate(-5.000000, -12.000000) "></path>
            </g>
        </g>
    </g>
</svg>
