<?xml version="1.0" encoding="UTF-8"?>
<svg width="24px" height="24px" viewBox="0 0 24 24" version="1.1" xmlns="http://www.w3.org/2000/svg" xmlns:xlink="http://www.w3.org/1999/xlink">
    <!-- Generator: Sketch 58 (84663) - https://sketch.com -->
    <title>icon / gray / formula</title>
    <desc>Created with Sketch.</desc>
    <defs>
        <polygon id="path-1" points="0 0.568 20.1719 0.568 20.1719 16 0 16"></polygon>
    </defs>
    <g id="icon-/-gray-/-formula" stroke="none" stroke-width="1" fill="none" fill-rule="evenodd">
        <g id="Group">
            <rect id="Rectangle" x="0" y="0" width="24" height="24"></rect>
            <g id="Formula">
                <rect id="Rectangle" x="0" y="0" width="24" height="24"></rect>
                <g id="Group-6" transform="translate(2.000000, 4.000000)">
                    <g id="Group-3" transform="translate(0.000000, 0.432400)">
                        <g id="Fill-1-Clipped">
                            <mask id="mask-2" fill="white">
                                <use xlink:href="#path-1"></use>
                            </mask>
                            <g id="path-1"></g>
                            <path d="M19.4219,0.5674 L8.5099,0.5674 C8.1829,0.5674 7.8409,0.7944 7.7509,1.1184 L4.5079,12.8344 L3.7879,10.9734 C3.7869,10.9704 3.7839,10.9674 3.7819,10.9644 C3.7589,10.9074 3.7209,10.8594 3.6839,10.8104 C3.6619,10.7804 3.6479,10.7444 3.6209,10.7174 C3.6009,10.6954 3.5709,10.6844 3.5469,10.6654 C3.4949,10.6244 3.4429,10.5814 3.3829,10.5544 C3.3699,10.5484 3.3549,10.5494 3.3409,10.5454 C3.2619,10.5164 3.1819,10.4964 3.0969,10.4964 C3.0939,10.4964 3.0919,10.4944 3.0889,10.4944 L0.7499,10.4944 C0.3359,10.4944 -0.0001,10.8304 -0.0001,11.2444 C-0.0001,11.6584 0.3359,11.9944 0.7499,11.9944 L2.5749,11.9944 L3.9399,15.5204 C4.0549,15.8184 4.3379,16.0004 4.6389,16.0004 C4.7289,16.0004 4.8199,15.9844 4.9089,15.9494 C5.1929,15.8394 5.3679,15.5764 5.3839,15.2924 L9.0439,2.0674 L19.4219,2.0674 C19.8359,2.0674 20.1719,1.7314 20.1719,1.3174 C20.1719,0.9034 19.8359,0.5674 19.4219,0.5674" id="Fill-1" fill="#2B2B2B" fill-rule="nonzero" mask="url(#mask-2)"></path>
                        </g>
                    </g>
                    <path d="M18.4004,6.4427 C18.0924,6.1657 17.6184,6.1907 17.3404,6.4987 L14.3904,9.7757 L11.4404,6.4987 C11.1624,6.1897 10.6884,6.1647 10.3804,6.4427 C10.0734,6.7197 10.0474,7.1937 10.3254,7.5027 L13.3804,10.8977 L10.3254,14.2927 C10.0474,14.6007 10.0734,15.0747 10.3804,15.3527 C10.5244,15.4817 10.7044,15.5447 10.8824,15.5447 C11.0884,15.5447 11.2924,15.4607 11.4404,15.2967 L14.3904,12.0197 L17.3404,15.2967 C17.4894,15.4607 17.6934,15.5447 17.8984,15.5447 C18.0774,15.5447 18.2564,15.4817 18.4004,15.3527 C18.7084,15.0747 18.7334,14.6007 18.4564,14.2927 L15.4004,10.8977 L18.4564,7.5027 C18.7334,7.1937 18.7084,6.7197 18.4004,6.4427" id="Fill-4" fill="#2B2B2B" fill-rule="nonzero"></path>
                </g>
            </g>
        </g>
    </g>
</svg>