<?xml version="1.0" encoding="utf-8"?>
<!-- Generator: Adobe Illustrator 24.1.0, SVG Export Plug-In . SVG Version: 6.00 Build 0)  -->
<svg version="1.1" id="Layer_1" xmlns="http://www.w3.org/2000/svg" xmlns:xlink="http://www.w3.org/1999/xlink" x="0px" y="0px"
	 viewBox="0 0 24 24" style="enable-background:new 0 0 24 24;" xml:space="preserve">
<style type="text/css">
	.st0{opacity:0;fill:#FFFFFF;}
	.st1{fill:#2B2B2B;}
</style>
<g>
	<rect class="st0" width="24" height="24"/>
	<g>
		<path class="st1" d="M21.6,9.99c-0.3-0.28-0.78-0.27-1.06,0.03l-3.34,3.54l-3.34-3.54c-0.28-0.3-0.76-0.31-1.06-0.03
			c-0.3,0.28-0.31,0.76-0.03,1.06l3.4,3.6l-3.4,3.6c-0.28,0.3-0.27,0.78,0.03,1.06c0.15,0.14,0.33,0.21,0.52,0.21
			c0.2,0,0.4-0.08,0.54-0.24l3.34-3.54l3.34,3.54c0.15,0.16,0.35,0.24,0.54,0.24c0.18,0,0.37-0.07,0.51-0.21
			c0.3-0.28,0.32-0.76,0.03-1.06l-3.4-3.6l3.4-3.6C21.92,10.75,21.9,10.27,21.6,9.99z"/>
		<path class="st1" d="M21.93,3.95H11.16c-0.42,0-0.78,0.27-0.91,0.66l-4.04,12.7l-1.06-3.28c-0.13-0.39-0.49-0.65-0.9-0.65H2.07
			c-0.41,0-0.75,0.34-0.75,0.75s0.34,0.75,0.75,0.75h1.78l1.47,4.52c0.13,0.39,0.49,0.66,0.9,0.66c0,0,0,0,0,0
			c0.41,0,0.78-0.27,0.9-0.66l4.43-13.95h10.36c0.41,0,0.75-0.34,0.75-0.75S22.34,3.95,21.93,3.95z"/>
	</g>
</g>
</svg>
