<svg viewBox="0 0 24 24" xmlns="http://www.w3.org/2000/svg"><g id="image" stroke="none" stroke-width="1" fill="none" fill-rule="evenodd"><rect id="Rectangle-Copy-4" x="0" y="0" width="24" height="24"></rect> <g id="Group" transform="translate(3.000000, 3.000000)" fill="#3366FF"><path d="M15.8571429,0.25 C16.9021041,0.25 17.75,1.09734315 17.75,2.14211213 L17.75,15.8474576 C17.75,16.8922266 16.9021041,17.7395698 15.8571429,17.7395698 L2.14285714,17.7395698 C1.09789588,17.7395698 0.25,16.8922266 0.25,15.8474576 L0.25,2.14211213 C0.25,1.09734315 1.09789588,0.25 2.14285714,0.25 L15.8571429,0.25 Z M5.63422976,9.05699435 L1.74997625,13.828 L1.75,15.8474576 C1.75,16.0635804 1.92610412,16.2395698 2.14285714,16.2395698 L15.8571429,16.2395698 C16.0738959,16.2395698 16.25,16.0635804 16.25,15.8474576 L16.2499763,12.823 L13.5714286,11.0387587 L10.5586005,13.0453467 C10.2636447,13.2417917 9.87144168,13.2049728 9.61820043,12.9570647 L5.63422976,9.05699435 Z M15.8571429,1.75 L2.14285714,1.75 C1.92610412,1.75 1.75,1.92598932 1.75,2.14211213 L1.74997625,11.452 L4.98971819,7.47255883 C5.2682818,7.13026612 5.78072299,7.10130027 6.09608528,7.4100212 L10.2330933,11.4599059 L13.1556852,9.51341655 C13.4074805,9.34571718 13.7353767,9.34571718 13.987172,9.51341655 L16.2499763,11.02 L16.25,2.14211213 C16.25,1.92598932 16.0738959,1.75 15.8571429,1.75 Z M11.2857143,4.42633638 C11.9165714,4.42633638 12.4285714,4.93800261 12.4285714,5.5684485 C12.4285714,6.19889439 11.9165714,6.71056063 11.2857143,6.71056063 C10.6548571,6.71056063 10.1428571,6.19889439 10.1428571,5.5684485 C10.1428571,4.93800261 10.6548571,4.42633638 11.2857143,4.42633638 Z" id="Combined-Shape"></path></g> </g></svg>