<?xml version="1.0" encoding="UTF-8"?>
<svg width="24px" height="24px" viewBox="0 0 24 24" version="1.1" xmlns="http://www.w3.org/2000/svg" xmlns:xlink="http://www.w3.org/1999/xlink">
    <!-- Generator: Sketch 60.1 (88133) - https://sketch.com -->
    <title>Italic</title>
    <desc>Created with Sketch.</desc>
    <g id="Italic" stroke="none" stroke-width="1" fill="none" fill-rule="evenodd">
        <rect id="Rectangle" x="0" y="0" width="24" height="24"></rect>
        <path d="M6.66666667,19.6388889 C6.2524531,19.6388889 5.91666667,19.3031025 5.91666667,18.8888889 C5.91666667,18.4746753 6.2524531,18.1388889 6.66666667,18.1388889 L9.11166667,18.1384697 L12.9036667,5.41646971 L10.5866667,5.41666667 C10.1724531,5.41666667 9.83666667,5.08088023 9.83666667,4.66666667 C9.83666667,4.2524531 10.1724531,3.91666667 10.5866667,3.91666667 L17.2355556,3.91666667 C17.6497691,3.91666667 17.9855556,4.2524531 17.9855556,4.66666667 C17.9855556,5.08088023 17.6497691,5.41666667 17.2355556,5.41666667 L14.4696667,5.41646971 L10.6766667,18.1384697 L13.3066667,18.1388889 C13.7208802,18.1388889 14.0566667,18.4746753 14.0566667,18.8888889 C14.0566667,19.3031025 13.7208802,19.6388889 13.3066667,19.6388889 L6.66666667,19.6388889 Z" id="Combined-Shape"></path>
    </g>
</svg>