<?xml version="1.0" encoding="UTF-8"?>
<svg width="24px" height="24px" viewBox="0 0 24 24" version="1.1" xmlns="http://www.w3.org/2000/svg" xmlns:xlink="http://www.w3.org/1999/xlink">
    <g id="Justify-Left" stroke="none" stroke-width="1" fill="none" fill-rule="evenodd">
        <rect id="Rectangle" x="0" y="0" width="24" height="24"></rect>
        <path d="M11,17.25 C11.4142136,17.25 11.75,17.5857864 11.75,18 C11.75,18.3796958 11.4678461,18.693491 11.1017706,18.7431534 L11,18.75 L3,18.75 C2.58578644,18.75 2.25,18.4142136 2.25,18 C2.25,17.6203042 2.53215388,17.306509 2.89822944,17.2568466 L3,17.25 L11,17.25 Z M21,13.25 C21.4142136,13.25 21.75,13.5857864 21.75,14 C21.75,14.3796958 21.4678461,14.693491 21.1017706,14.7431534 L21,14.75 L3,14.75 C2.58578644,14.75 2.25,14.4142136 2.25,14 C2.25,13.6203042 2.53215388,13.306509 2.89822944,13.2568466 L3,13.25 L21,13.25 Z M15.8571429,9.25 C16.2713564,9.25 16.6071429,9.58578644 16.6071429,10 C16.6071429,10.3796958 16.324989,10.693491 15.9589134,10.7431534 L15.8571429,10.75 L3,10.75 C2.58578644,10.75 2.25,10.4142136 2.25,10 C2.25,9.62030423 2.53215388,9.30650904 2.89822944,9.25684662 L3,9.25 L15.8571429,9.25 Z M21,5.25 C21.4142136,5.25 21.75,5.58578644 21.75,6 C21.75,6.37969577 21.4678461,6.69349096 21.1017706,6.74315338 L21,6.75 L3,6.75 C2.58578644,6.75 2.25,6.41421356 2.25,6 C2.25,5.62030423 2.53215388,5.30650904 2.89822944,5.25684662 L3,5.25 L21,5.25 Z" id="Combined-Shape" fill="#3366FF" fill-rule="nonzero"></path>
    </g>
</svg>
