<?xml version="1.0" encoding="UTF-8"?>
<svg width="24px" height="24px" viewBox="0 0 24 24" version="1.1" xmlns="http://www.w3.org/2000/svg" xmlns:xlink="http://www.w3.org/1999/xlink">
    <g id="Justify-Right" stroke="none" stroke-width="1" fill="none" fill-rule="evenodd">
        <rect id="Rectangle" x="0" y="0" width="24" height="24"></rect>
        <path d="M21,17.25 C21.4142136,17.25 21.75,17.5857864 21.75,18 C21.75,18.3796958 21.4678461,18.693491 21.1017706,18.7431534 L21,18.75 L13.2857143,18.75 C12.8715007,18.75 12.5357143,18.4142136 12.5357143,18 C12.5357143,17.6203042 12.8178682,17.306509 13.1839437,17.2568466 L13.2857143,17.25 L21,17.25 Z M21,13.25 C21.4142136,13.25 21.75,13.5857864 21.75,14 C21.75,14.3796958 21.4678461,14.693491 21.1017706,14.7431534 L21,14.75 L3,14.75 C2.58578644,14.75 2.25,14.4142136 2.25,14 C2.25,13.6203042 2.53215388,13.306509 2.89822944,13.2568466 L3,13.25 L21,13.25 Z M21,9.25 C21.4142136,9.25 21.75,9.58578644 21.75,10 C21.75,10.3796958 21.4678461,10.693491 21.1017706,10.7431534 L21,10.75 L8.14285714,10.75 C7.72864358,10.75 7.39285714,10.4142136 7.39285714,10 C7.39285714,9.62030423 7.67501102,9.30650904 8.04108659,9.25684662 L8.14285714,9.25 L21,9.25 Z M21,5.25 C21.4142136,5.25 21.75,5.58578644 21.75,6 C21.75,6.37969577 21.4678461,6.69349096 21.1017706,6.74315338 L21,6.75 L3,6.75 C2.58578644,6.75 2.25,6.41421356 2.25,6 C2.25,5.62030423 2.53215388,5.30650904 2.89822944,5.25684662 L3,5.25 L21,5.25 Z" id="Combined-Shape" fill="#3366FF"></path>
    </g>
</svg>
