<svg viewBox="0 0 24 24" xmlns="http://www.w3.org/2000/svg"><path stroke="none" fill-rule="evenodd" d="M8.42680067,9.7661405 C8.71969389,10.0590337 8.71969389,10.5339075 8.42680067,10.8268007 L6.54485166,12.7087494 C5.10554962,14.1502464 5.10554962,16.4850477 6.54404349,17.9257366 C7.98554056,19.3650386 10.3203418,19.3650386 11.7614346,17.9261405 L13.6437876,16.0437876 C13.9366808,15.7508943 14.4115545,15.7508943 14.7044477,16.0437876 C14.997341,16.3366808 14.997341,16.8115545 14.7044477,17.1044477 L12.8216906,18.9872046 C10.7945925,21.0112159 7.51128987,21.0112159 5.48338363,18.9863964 C3.4593723,16.9592984 3.4593723,13.6759958 5.48378756,11.6484934 L7.3661405,9.7661405 C7.65903372,9.47324728 8.13390746,9.47324728 8.42680067,9.7661405 Z M15.3444477,9.10731697 C15.637341,9.40021019 15.637341,9.87508393 15.3444477,10.1679771 L10.0832713,15.4291536 C9.79037804,15.7220468 9.31550431,15.7220468 9.02261109,15.4291536 C8.72971787,15.1362604 8.72971787,14.6613867 9.02261109,14.3684934 L14.2837876,9.10731697 C14.5766808,8.81442375 15.0515545,8.81442375 15.3444477,9.10731697 Z M18.9872046,5.4841918 C21.0112159,7.51128987 21.0112159,10.7945925 18.9868007,12.8220948 L17.1044477,14.7044477 C16.8115545,14.997341 16.3366808,14.997341 16.0437876,14.7044477 C15.7508943,14.4115545 15.7508943,13.9366808 16.0437876,13.6437876 L17.9257366,11.7618389 C19.3650386,10.3203418 19.3650386,7.98554056 17.9265447,6.54485166 C16.4850477,5.10554962 14.1502464,5.10554962 12.7091536,6.54444773 L10.8268007,8.42680067 C10.5339075,8.71969389 10.0590337,8.71969389 9.7661405,8.42680067 C9.47324728,8.13390746 9.47324728,7.65903372 9.7661405,7.3661405 L11.6488977,5.48338363 C13.6759958,3.4593723 16.9592984,3.4593723 18.9872046,5.4841918 Z" id="Combined-Shape"></path></svg>