<?xml version="1.0" encoding="UTF-8"?>
<svg width="24px" height="24px" viewBox="0 0 24 24" version="1.1" xmlns="http://www.w3.org/2000/svg" xmlns:xlink="http://www.w3.org/1999/xlink">
    <!-- Generator: Sketch 60.1 (88133) - https://sketch.com -->
    <title>By grid</title>
    <desc>Created with Sketch.</desc>
    <g id="By-grid" stroke="none" stroke-width="1" fill="none" fill-rule="evenodd">
        <g id="Asset-4">
            <rect id="Rectangle" x="0" y="0" width="24" height="24"></rect>
            <path d="M18.11,17.06 C18.5242136,17.06 18.86,17.3957864 18.86,17.81 C18.86,18.1896958 18.5778461,18.503491 18.2117706,18.5531534 L18.11,18.56 L6.11,18.56 C5.69578644,18.56 5.36,18.2242136 5.36,17.81 C5.36,17.4303042 5.64215388,17.116509 6.00822944,17.0668466 L6.11,17.06 L18.11,17.06 Z M20,9 C20.5522847,9 21,9.44771525 21,10 L21,14 C21,14.5522847 20.5522847,15 20,15 L4,15 C3.44771525,15 3,14.5522847 3,14 L3,10 C3,9.44771525 3.44771525,9 4,9 L20,9 Z M18.11,5.44 C18.5242136,5.44 18.86,5.77578644 18.86,6.19 C18.86,6.56969577 18.5778461,6.88349096 18.2117706,6.93315338 L18.11,6.94 L6.11,6.94 C5.69578644,6.94 5.36,6.60421356 5.36,6.19 C5.36,5.81030423 5.64215388,5.49650904 6.00822944,5.44684662 L6.11,5.44 L18.11,5.44 Z" id="Combined-Shape"></path>
        </g>
    </g>
</svg>
