<svg viewBox="0 0 24 24" xmlns="http://www.w3.org/2000/svg"><path stroke="none" fill-rule="evenodd" d="M4.21697026,17.4880952 C4.90469627,17.4880952 5.46220836,18.0456073 5.46220836,18.7333333 L5.46220836,21.2666667 C5.46220836,21.9543927 4.90469627,22.5119048 4.21697026,22.5119048 L2.01697026,22.5119048 C1.6027567,22.5119048 1.26697026,22.1761183 1.26697026,21.7619048 C1.26697026,21.3476912 1.6027567,21.0119048 2.01697026,21.0119048 L3.96220836,21.0119048 L3.96173919,20.75 L3.00744646,20.75 C2.59323289,20.75 2.25744646,20.4142136 2.25744646,20 C2.25744646,19.5857864 2.59323289,19.25 3.00744646,19.25 L3.96173919,19.25 L3.96220836,18.9880952 L2.01697026,18.9880952 C1.6027567,18.9880952 1.26697026,18.6523088 1.26697026,18.2380952 C1.26697026,17.8238817 1.6027567,17.4880952 2.01697026,17.4880952 L4.21697026,17.4880952 Z M20.882,18.441 C21.2962136,18.441 21.632,18.7767864 21.632,19.191 C21.632,19.6052136 21.2962136,19.941 20.882,19.941 L9.164,19.941 C8.74978644,19.941 8.414,19.6052136 8.414,19.191 C8.414,18.7767864 8.74978644,18.441 9.164,18.441 L20.882,18.441 Z M3.44554169,8.86904762 C3.90122997,8.86904762 4.32109915,9.11610005 4.54240094,9.51444327 C4.76370273,9.91278649 4.75164655,10.3997975 4.48365522,10.8274641 L3.36084044,12.3928571 L4.73125598,12.3928571 C5.14546954,12.3928571 5.48125598,12.7286436 5.48125598,13.1428571 C5.48125598,13.5570707 5.14546954,13.8928571 4.73125598,13.8928571 L2.08781162,13.8927097 C1.77733881,13.8865516 1.49462878,13.7124945 1.3493338,13.4380484 C1.20403881,13.1636024 1.21901779,12.8319452 1.40742816,12.5439645 L2.9683338,10.3690476 L2.0550655,10.3690476 C1.64085194,10.3690476 1.3050655,10.0332612 1.3050655,9.61904762 C1.3050655,9.20483406 1.64085194,8.86904762 2.0550655,8.86904762 L3.44554169,8.86904762 Z M20.882,11.241 C21.2962136,11.241 21.632,11.5767864 21.632,11.991 C21.632,12.4052136 21.2962136,12.741 20.882,12.741 L9.164,12.741 C8.74978644,12.741 8.414,12.4052136 8.414,11.991 C8.414,11.5767864 8.74978644,11.241 9.164,11.241 L20.882,11.241 Z M3.74077979,1.25 C4.15499335,1.25 4.49077979,1.58578644 4.49077979,2 L4.49077979,5.52380952 C4.49077979,5.93802309 4.15499335,6.27380952 3.74077979,6.27380952 C3.32656623,6.27380952 2.99077979,5.93802309 2.99077979,5.52380952 L2.99077979,2.75 C2.57418527,2.75 2.23839884,2.41421356 2.23839884,2 C2.23839884,1.58578644 2.57418527,1.25 2.98839884,1.25 L3.74077979,1.25 Z M20.882,4.041 C21.2962136,4.041 21.632,4.37678644 21.632,4.791 C21.632,5.20521356 21.2962136,5.541 20.882,5.541 L9.164,5.541 C8.74978644,5.541 8.414,5.20521356 8.414,4.791 C8.414,4.37678644 8.74978644,4.041 9.164,4.041 L20.882,4.041 Z" id="Combined-Shape"></path></svg>