<?xml version="1.0" encoding="UTF-8"?>
<svg width="24px" height="24px" viewBox="0 0 24 24" version="1.1" xmlns="http://www.w3.org/2000/svg" xmlns:xlink="http://www.w3.org/1999/xlink">
    <g id="Open-Link" stroke="none" stroke-width="1" fill="none" fill-rule="evenodd">
        <g id="Group">
            <rect id="Rectangle" x="0" y="0" width="24" height="24"></rect>
            <path d="M10,4.02 C10.4142136,4.02 10.75,4.35578644 10.75,4.77 C10.75,5.14969577 10.4678461,5.46349096 10.1017706,5.51315338 L10,5.52 L6,5.52 C5.88165327,5.52 5.78251318,5.60223341 5.75660268,5.71267729 L5.75,5.77 L5.75,18.19 C5.75,18.3083467 5.83223341,18.4074868 5.94267729,18.4333973 L6,18.44 L18,18.44 C18.1183467,18.44 18.2174868,18.3577666 18.2433973,18.2473227 L18.25,18.19 L18.25,13 C18.25,12.5857864 18.5857864,12.25 19,12.25 C19.3796958,12.25 19.693491,12.5321539 19.7431534,12.8982294 L19.75,13 L19.75,18.19 C19.75,19.1081734 19.0428897,19.8611923 18.1435272,19.9341988 L18,19.94 L6,19.94 C5.0818266,19.94 4.32880766,19.2328897 4.2558012,18.3335272 L4.25,18.19 L4.25,5.77 C4.25,4.8518266 4.95711027,4.09880766 5.85647279,4.0258012 L6,4.02 L10,4.02 Z M19,3.98 L19.0147915,3.98014234 C19.033809,3.9805129 19.0528176,3.98160265 19.0717731,3.98341243 L19,3.98 C19.0429711,3.98 19.0850982,3.98361383 19.1260939,3.99055416 C19.1308495,3.99140225 19.1364312,3.99240753 19.1420034,3.99347644 L19.163073,3.9977786 C19.1861934,4.00290488 19.2089124,4.00909826 19.2311756,4.01630441 C19.2352756,4.01766157 19.2395872,4.01909675 19.2438882,4.02057225 L19.2593727,4.02605995 C19.2830122,4.03477302 19.3060919,4.04464284 19.3285432,4.05560077 C19.3373174,4.05983636 19.3463271,4.06445125 19.355261,4.06926101 C19.3741302,4.07948131 19.392483,4.09041457 19.4103087,4.1020864 C19.4226987,4.1101411 19.4349237,4.11867627 19.4469449,4.12761906 C19.4638924,4.1402524 19.4804168,4.15365245 19.4963393,4.16771831 C19.5041504,4.17461045 19.5121611,4.18199374 19.5200486,4.18958398 C19.539859,4.20899071 19.5535634,4.22356911 19.5666738,4.238677 L19.5200486,4.18958398 C19.5824266,4.24961109 19.6321661,4.31783127 19.6692033,4.39092257 C19.6792302,4.41073422 19.6886363,4.43151507 19.6970981,4.45277426 C19.7003011,4.46089208 19.7033131,4.46888304 19.7061843,4.47691382 C19.7146115,4.50028241 19.7219459,4.52448867 19.7280574,4.54917728 C19.7306162,4.55987146 19.7329329,4.57019407 19.7350296,4.58055326 C19.7382071,4.59579541 19.7409421,4.61192923 19.7431534,4.62822944 L19.7453335,4.64629065 C19.7469001,4.66030816 19.7480725,4.67436284 19.7488505,4.68843668 L19.75,4.73 L19.75,8.73 C19.75,9.14421356 19.4142136,9.48 19,9.48 C18.6203042,9.48 18.306509,9.19784612 18.2568466,8.83177056 L18.25,8.73 L18.25,6.591 L11.880416,13.2100486 C11.5932011,13.5085121 11.1184149,13.5176309 10.8199514,13.230416 C10.5486209,12.9693116 10.5164183,12.5531895 10.7285945,12.2554488 L10.799584,12.1699514 L17.236,5.48 L15,5.48 C14.5857864,5.48 14.25,5.14421356 14.25,4.73 C14.25,4.35030423 14.5321539,4.03650904 14.8982294,3.98684662 L15,3.98 L19,3.98 Z" id="Combined-Shape" fill="#3366FF" fill-rule="nonzero"></path>
        </g>
    </g>
</svg>
