<?xml version="1.0" encoding="UTF-8"?>
<svg width="24px" height="24px" viewBox="0 0 24 24" version="1.1" xmlns="http://www.w3.org/2000/svg" xmlns:xlink="http://www.w3.org/1999/xlink">
    <g id="Paragraph" stroke="none" stroke-width="1" fill="none" fill-rule="evenodd">
        <g id="Asset-6">
            <rect id="Rectangle" x="0" y="0" width="24" height="24"></rect>
            <path d="M14.13,19.43 C14.13,19.8442136 13.7942136,20.18 13.38,20.18 C13.0003042,20.18 12.686509,19.8978461 12.6368466,19.5317706 L12.63,19.43 L12.629,13.32 L9.42,13.32 C6.86951834,13.32 4.78853034,11.3098587 4.67488786,8.787428 L4.67,8.57 C4.67,6.01951834 6.68014129,3.93853034 9.202572,3.82488786 L9.42,3.82 L17.49,3.82 C17.8696958,3.82 18.183491,4.10215388 18.2331534,4.46822944 L18.24,4.57 L18.24,19.43 C18.24,19.8442136 17.9042136,20.18 17.49,20.18 C17.1103042,20.18 16.796509,19.8978461 16.7468466,19.5317706 L16.74,19.43 L16.74,13.32 L14.129,13.32 L14.13,19.43 Z M12.629,5.32 L9.42,5.32 C7.68696854,5.32 6.27075407,6.67645477 6.17514479,8.38557609 L6.17,8.57 C6.17,10.3030315 7.52645477,11.7192459 9.23557609,11.8148552 L9.42,11.82 L12.629,11.82 L12.629,5.32 Z M16.74,5.32 L14.129,5.32 L14.129,11.82 L16.74,11.82 L16.74,5.32 Z" id="Combined-Shape" fill="#3366FF"></path>
        </g>
    </g>
</svg>
