<svg viewBox="0 0 24 24" xmlns="http://www.w3.org/2000/svg"><path stroke="none" fill-rule="evenodd" d="M16.1252351,4.91515803 L18.8234791,7.61164307 C19.5046204,8.29234033 19.5125594,9.39726324 18.8385171,10.0844175 L9.84261371,19.2553146 C9.70156889,19.3991031 9.50861693,19.4801173 9.3072,19.4801173 L5.0002,19.4801173 C4.58598644,19.4801173 4.2502,19.1443309 4.2502,18.7301173 L4.2502,14.4249257 C4.2502,14.2233257 4.3313611,14.0302143 4.47537956,13.8891426 L13.652259,4.90003108 C14.3377233,4.22859207 15.449259,4.2396225 16.1252351,4.91515803 Z M12.1142,8.50543148 L5.7502,14.7401366 L5.7502,17.9801173 L8.99229948,17.9801173 L15.2302,11.6204315 L12.1142,8.50543148 Z M14.7018999,5.97159724 L13.1852,7.45643148 L16.2802,10.5494315 L17.7676896,9.03402298 C17.8643925,8.93543895 17.8632228,8.77264175 17.7631649,8.67264901 L15.0649209,5.97616397 C14.9681946,5.87950075 14.7976479,5.87780831 14.7018999,5.97159724 Z" id="Combined-Shape"></path></svg>