<?xml version="1.0" encoding="UTF-8"?>
<svg width="24px" height="24px" viewBox="0 0 24 24" version="1.1" xmlns="http://www.w3.org/2000/svg" xmlns:xlink="http://www.w3.org/1999/xlink">
    <!-- Generator: Sketch 60.1 (88133) - https://sketch.com -->
    <title>plus</title>
    <desc>Created with Sketch.</desc>
    <defs>
        <path d="M12,5.75 C12.4142136,5.75 12.75,6.08578644 12.75,6.5 L12.75,11.457 L18,11.4571068 C18.4142136,11.4571068 18.75,11.7928932 18.75,12.2071068 C18.75,12.6213203 18.4142136,12.9571068 18,12.9571068 L12.75,12.957 L12.75,18.5 C12.75,18.9142136 12.4142136,19.25 12,19.25 C11.5857864,19.25 11.25,18.9142136 11.25,18.5 L11.25,12.957 L6,12.9571068 C5.58578644,12.9571068 5.25,12.6213203 5.25,12.2071068 C5.25,11.7928932 5.58578644,11.4571068 6,11.4571068 L11.25,11.457 L11.25,6.5 C11.25,6.08578644 11.5857864,5.75 12,5.75 Z" id="path-1"></path>
    </defs>
    <g id="plus" stroke="none" stroke-width="1" fill="none" fill-rule="evenodd">
        <rect id="Rectangle" x="0" y="0" width="24" height="24"></rect>
        <mask id="mask-2" fill="white">
            <use xlink:href="#path-1"></use>
        </mask>
        <use id="Mask" fill="#3366FF" xlink:href="#path-1"></use>
    </g>
</svg>