<svg viewBox="0 0 24 24" xmlns="http://www.w3.org/2000/svg"><g id="Quote" stroke="none" stroke-width="1" fill="none" fill-rule="evenodd"><rect id="Rectangle" x="0" y="0" width="24" height="24"></rect><g id="Group-2" transform="translate(4.000000, 6.000000)" fill-rule="nonzero"><path d="M5.49914811,0.25 C5.91336167,0.25 6.24914811,0.585786438 6.24914811,1 C6.24914811,1.37969577 5.96699423,1.69349096 5.60091867,1.74315338 L5.49914811,1.75 L4.67635681,1.75 C3.89489073,1.75229813 3.14660892,2.06615379 2.59732546,2.62201549 C2.09797687,3.12734431 1.80057689,3.79474199 1.75591406,4.50406536 L1.75014811,4.718 L1.749664,5.64838922 C2.3187427,5.24805445 3.01249545,5.013 3.76114811,5.013 C5.69414474,5.013 7.26114811,6.58000338 7.26114811,8.513 C7.26114811,10.4459966 5.69414474,12.013 3.76114811,12.013 C1.82815149,12.013 0.261148111,10.4459966 0.261148111,8.513 C0.261148111,8.41140688 0.2654766,8.31082473 0.273959219,8.21142792 C0.267395232,8.18164346 0.261233078,8.15101263 0.256994727,8.11977056 L0.250148111,8.018 L0.250178214,4.72471967 C0.239598249,3.54390944 0.700363199,2.4076352 1.53037074,1.56768745 C2.30504444,0.783736215 3.3416622,0.318340607 4.43830749,0.256942064 L4.67414811,0.25 L5.49914811,0.25 Z M14.5091346,0.29 C14.9233482,0.29 15.2591346,0.625786438 15.2591346,1.04 C15.2591346,1.41969577 14.9769808,1.73349096 14.6109052,1.78315338 L14.5091346,1.79 L13.6753802,1.79 C12.1214744,1.79464907 10.8536548,3.01078089 10.7650783,4.54255002 L10.7601346,4.714 L10.7596611,5.636675 C11.3266674,5.24103657 12.0163035,5.009 12.7601346,5.009 C14.6931313,5.009 16.2601346,6.57600338 16.2601346,8.509 C16.2601346,10.4419966 14.6931313,12.009 12.7601346,12.009 C10.827138,12.009 9.26013465,10.4419966 9.26013465,8.509 C9.26013465,8.39411114 9.26567023,8.28051518 9.27648924,8.16846429 C9.27250304,8.151564 9.26942292,8.13376871 9.26698126,8.11577056 L9.26013465,8.014 L9.26013465,4.714 C9.26013465,2.34756498 11.1184288,0.414086148 13.4590596,0.295721635 L13.6731346,0.29 L14.5091346,0.29 Z" id="Combined-Shape"></path></g><g id="Group" transform="translate(14.010135, 7.040000)"></g></g></svg>