<svg width="24px" height="24px" viewBox="0 0 24 24" version="1.1" xmlns="http://www.w3.org/2000/svg" xmlns:xlink="http://www.w3.org/1999/xlink">
    <g id="icon-/-main-/-search" stroke="none" stroke-width="1" fill="none" fill-rule="evenodd">
        <rect id="Rectangle-Copy-5" x="0" y="0" width="24" height="24"></rect>
        <path d="M10.9230769,4.25 C14.6081473,4.25 17.5961538,7.23568369 17.5961538,10.9192157 C17.5961538,12.4922742 17.0512217,13.938064 16.1397824,15.078402 L19.5303301,18.4696699 C19.8232233,18.7625631 19.8232233,19.2374369 19.5303301,19.5303301 C19.2374369,19.8232233 18.7625631,19.8232233 18.4696699,19.5303301 L15.0773112,16.1387566 C13.9373756,17.0461813 12.4935255,17.5884315 10.9230769,17.5884315 C7.23800653,17.5884315 4.25,14.6027478 4.25,10.9192157 C4.25,7.23568369 7.23800653,4.25 10.9230769,4.25 Z M10.9230769,5.75 C8.06617263,5.75 5.75,8.06437206 5.75,10.9192157 C5.75,13.7740594 8.06617263,16.0884315 10.9230769,16.0884315 C13.7799812,16.0884315 16.0961538,13.7740594 16.0961538,10.9192157 C16.0961538,8.06437206 13.7799812,5.75 10.9230769,5.75 Z" id="Combined-Shape" fill="#2B2B2B"></path>
    </g>
</svg>
