<?xml version="1.0" encoding="UTF-8"?>
<svg width="24px" height="24px" viewBox="0 0 24 24" version="1.1" xmlns="http://www.w3.org/2000/svg" xmlns:xlink="http://www.w3.org/1999/xlink" id="containersize-button">
    <!-- Generator: Sketch 60.1 (88133) - https://sketch.com -->
    <title>8 grid</title>
    <desc>Created with Sketch.</desc>
    <g id="8-grid" data-size-toggler="containersize" stroke="none" stroke-width="1" fill="none" fill-rule="evenodd">
        <g id="Asset-3">
            <rect id="Rectangle" x="0" y="0" width="24" height="24"></rect>
            <path d="M18,17.06 C18.4142136,17.06 18.75,17.3957864 18.75,17.81 C18.75,18.1896958 18.4678461,18.503491 18.1017706,18.5531534 L18,18.56 L6,18.56 C5.58578644,18.56 5.25,18.2242136 5.25,17.81 C5.25,17.4303042 5.53215388,17.116509 5.89822944,17.0668466 L6,17.06 L18,17.06 Z M18,9 C18.5522847,9 19,9.44771525 19,10 L19,14 C19,14.5522847 18.5522847,15 18,15 L6,15 C5.44771525,15 5,14.5522847 5,14 L5,10 C5,9.44771525 5.44771525,9 6,9 L18,9 Z M18,5.44 C18.4142136,5.44 18.75,5.77578644 18.75,6.19 C18.75,6.56969577 18.4678461,6.88349096 18.1017706,6.93315338 L18,6.94 L6,6.94 C5.58578644,6.94 5.25,6.60421356 5.25,6.19 C5.25,5.81030423 5.53215388,5.49650904 5.89822944,5.44684662 L6,5.44 L18,5.44 Z" id="Combined-Shape"></path>
        </g>
    </g>
</svg>
