<?xml version="1.0" encoding="UTF-8"?>
<svg width="24px" height="24px" viewBox="0 0 24 24" version="1.1" xmlns="http://www.w3.org/2000/svg" xmlns:xlink="http://www.w3.org/1999/xlink">
    <!-- Generator: Sketch 60.1 (88133) - https://sketch.com -->
    <title>Table Header</title>
    <desc>Created with Sketch.</desc>
    <g id="Table-Header" stroke="none" stroke-width="1" fill="none" fill-rule="evenodd">
        <rect id="Rectangle" x="0" y="0" width="24" height="24"></rect>
        <path d="M8.12,4.25 C8.53421356,4.25 8.87,4.58578644 8.87,5 C8.87,5.37969577 8.58784612,5.69349096 8.22177056,5.74315338 L8.12,5.75 L7.307,5.75 L7.36,11.009 L16.62,11.009 L16.567,5.75 L15.88,5.75 C15.4657864,5.75 15.13,5.41421356 15.13,5 C15.13,4.62030423 15.4121539,4.30650904 15.7782294,4.25684662 L15.88,4.25 L18.88,4.25 C19.2942136,4.25 19.63,4.58578644 19.63,5 C19.63,5.37969577 19.3478461,5.69349096 18.9817706,5.74315338 L18.88,5.75 L18.067,5.75 L18.192,18.25 L18.88,18.25 C19.2942136,18.25 19.63,18.5857864 19.63,19 C19.63,19.3796958 19.3478461,19.693491 18.9817706,19.7431534 L18.88,19.75 L15.88,19.75 C15.4657864,19.75 15.13,19.4142136 15.13,19 C15.13,18.6203042 15.4121539,18.306509 15.7782294,18.2568466 L15.88,18.25 L16.692,18.25 L16.635,12.509 L7.375,12.509 L7.432,18.25 L8.12,18.25 C8.53421356,18.25 8.87,18.5857864 8.87,19 C8.87,19.3796958 8.58784612,19.693491 8.22177056,19.7431534 L8.12,19.75 L5.12,19.75 C4.70578644,19.75 4.37,19.4142136 4.37,19 C4.37,18.6203042 4.65215388,18.306509 5.01822944,18.2568466 L5.12,18.25 L5.932,18.25 L5.807,5.75 L5.12,5.75 C4.70578644,5.75 4.37,5.41421356 4.37,5 C4.37,4.62030423 4.65215388,4.30650904 5.01822944,4.25684662 L5.12,4.25 L8.12,4.25 Z" id="Combined-Shape" fill="#3366FF"></path>
    </g>
</svg>