<?xml version="1.0" encoding="UTF-8"?>
<svg width="24px" height="24px" viewBox="0 0 24 24" version="1.1" xmlns="http://www.w3.org/2000/svg" xmlns:xlink="http://www.w3.org/1999/xlink">
    <g id="Table-Style" stroke="none" stroke-width="1" fill="none" fill-rule="evenodd">
        <rect id="Rectangle" x="0" y="0" width="24" height="24"></rect>
        <path d="M7.20823114,12.2276114 C8.82024337,11.3715343 10.8205145,11.9365827 11.7407354,13.5001819 C12.8218249,15.2771451 11.8124257,17.7217839 9.83122023,18.7826797 C9.18120453,19.127188 8.39430274,19.3279202 7.49861732,19.41489 C6.56359712,19.5056792 5.5772086,19.4683777 4.6233144,19.351846 C4.39098957,19.3234642 4.1959297,19.2948486 4.04606881,19.2700079 L4.04606881,19.2700079 L3.85616845,19.2360791 C3.28540098,19.1245499 3.05323886,18.4339877 3.44071002,18.0003054 C4.06959668,17.2964155 4.61726461,16.5239821 5.05803488,15.7268891 C5.11677169,15.6084028 5.17187843,15.4815802 5.22707492,15.3394675 C5.24323344,15.2978647 5.2572602,15.2611544 5.27121562,15.2235263 L5.27121562,15.2235263 L5.53097886,14.4697027 C5.9309963,13.3398663 6.30821248,12.7650655 7.17487366,12.2464336 L7.17487366,12.2464336 Z M19.5403301,4.46966991 C19.8065966,4.73593648 19.8308027,5.15260016 19.6129482,5.44621165 L19.5403301,5.53033009 L13.5403301,11.5303301 C13.2474369,11.8232233 12.7725631,11.8232233 12.4796699,11.5303301 C12.2134034,11.2640635 12.1891973,10.8473998 12.4070518,10.5537883 L12.4796699,10.4696699 L18.4796699,4.46966991 C18.7725631,4.1767767 19.2474369,4.1767767 19.5403301,4.46966991 Z" id="Combined-Shape" fill="#3366FF" fill-rule="nonzero"></path>
    </g>
</svg>
