<?xml version="1.0" encoding="UTF-8"?>
<svg width="24px" height="24px" viewBox="0 0 24 24" version="1.1" xmlns="http://www.w3.org/2000/svg" xmlns:xlink="http://www.w3.org/1999/xlink">
    <!-- Generator: Sketch 60.1 (88133) - https://sketch.com -->
    <title>Tt</title>
    <desc>Created with Sketch.</desc>
    <g id="Tt" stroke="none" stroke-width="1" fill="none" fill-rule="evenodd">
        <path d="M15.5623529,3.95588235 C15.9765665,3.95588235 16.3123529,4.29166879 16.3123529,4.70588235 C16.3123529,5.12009592 15.9765665,5.45588235 15.5623529,5.45588235 L9.88388235,5.45588235 L9.88411765,19.7647059 C9.88411765,20.1789194 9.54833121,20.5147059 9.13411765,20.5147059 C8.71990408,20.5147059 8.38411765,20.1789194 8.38411765,19.7647059 L8.38388235,5.45588235 L2.70588235,5.45588235 C2.29166879,5.45588235 1.95588235,5.12009592 1.95588235,4.70588235 C1.95588235,4.29166879 2.29166879,3.95588235 2.70588235,3.95588235 L15.5623529,3.95588235 Z M21.7458824,10.2335294 C22.1600959,10.2335294 22.4958824,10.5693158 22.4958824,10.9835294 C22.4958824,11.397743 22.1600959,11.7335294 21.7458824,11.7335294 L18.2125882,11.7335294 L18.2135294,19.7647059 C18.2135294,20.1789194 17.877743,20.5147059 17.4635294,20.5147059 C17.0493158,20.5147059 16.7135294,20.1789194 16.7135294,19.7647059 L16.7125882,11.7335294 L13.1905882,11.7335294 C12.7763747,11.7335294 12.4405882,11.397743 12.4405882,10.9835294 C12.4405882,10.5693158 12.7763747,10.2335294 13.1905882,10.2335294 L21.7458824,10.2335294 Z" id="Combined-Shape" fill="#3366FF"></path>
    </g>
</svg>