<?xml version="1.0" encoding="UTF-8"?>
<svg width="24px" height="24px" viewBox="0 0 24 24" version="1.1" xmlns="http://www.w3.org/2000/svg" xmlns:xlink="http://www.w3.org/1999/xlink">
    <!-- Generator: Sketch 60.1 (88133) - https://sketch.com -->
    <title>Unlink</title>
    <desc>Created with Sketch.</desc>
    <g id="Unlink" stroke="none" stroke-width="1" fill="none" fill-rule="evenodd">
        <g id="Group-2">
            <rect id="Rectangle" x="0" y="0" width="24" height="24"></rect>
            <path d="M15.634903,17.9533029 L15.6552461,18.0412158 L16.1052461,21.2812158 C16.1432346,21.5547327 15.9523011,21.8072577 15.6787842,21.8452461 C15.4356581,21.8790137 15.2091181,21.7319045 15.135097,21.5066971 L15.1147539,21.4187842 L14.6647539,18.1787842 C14.6267654,17.9052673 14.8176989,17.6527423 15.0912158,17.6147539 C15.3343419,17.5809863 15.5608819,17.7280955 15.634903,17.9533029 Z M16.5632631,15.7478727 L16.6326572,15.8055527 L20.5926572,19.7455527 C20.788413,19.9403199 20.7892145,20.2569013 20.5944473,20.4526572 C20.4213209,20.6266624 20.1519462,20.6466296 19.9567369,20.5121273 L19.8873428,20.4544473 L15.9273428,16.5144473 C15.731587,16.3196801 15.7307855,16.0030987 15.9255527,15.8073428 C16.0986791,15.6333376 16.3680538,15.6133704 16.5632631,15.7478727 Z M6.52921348,11.6485557 C6.82272209,11.9408322 6.82372088,12.4157049 6.53144434,12.7092135 C5.14340657,14.1031024 5.0955432,16.3271933 6.38785423,17.7783375 L6.49,17.886 L6.53921348,17.9285557 C7.93310242,19.3165934 10.1571933,19.3644568 11.6083375,18.0721458 L11.7607865,17.9285557 C12.0542951,17.6362791 12.5291678,17.6372779 12.8214443,17.9307865 C13.1137209,18.2242951 13.1127221,18.6991678 12.8192135,18.9914443 C10.8499457,20.9524457 7.70161945,21.0101222 5.66299527,19.1644739 L5.55872269,19.066448 L5.46855566,18.9892135 C3.44813002,16.9602709 3.44813002,13.6797291 5.46855566,11.6507865 C5.76083219,11.3572779 6.23570488,11.3562791 6.52921348,11.6485557 Z M17.8983363,14.3603363 L21.1683363,14.4803363 C21.4442929,14.4904632 21.6597905,14.7223797 21.6496637,14.9983363 C21.640662,15.2436311 21.4564192,15.4411558 21.2217743,15.4749094 L21.1316637,15.4796637 L17.8616637,15.3596637 C17.5857071,15.3495368 17.3702095,15.1176203 17.3803363,14.8416637 C17.389338,14.5963689 17.5735808,14.3988442 17.8082257,14.3650906 L17.8983363,14.3603363 Z M18.9914443,5.47078652 C21.01187,7.4997291 21.01187,10.7802709 18.9914443,12.8092135 C18.6991678,13.1027221 18.2242951,13.1037209 17.9307865,12.8114443 C17.6372779,12.5191678 17.6362791,12.0442951 17.9285557,11.7507865 C19.3661662,10.3071158 19.3661662,7.97288417 17.9307865,6.53144434 C16.4871158,5.0938338 14.1528842,5.0938338 12.7092135,6.53144434 C12.4157049,6.82372088 11.9408322,6.82272209 11.6485557,6.52921348 C11.3562791,6.23570488 11.3572779,5.76083219 11.6507865,5.46855566 C13.6797291,3.44813002 16.9602709,3.44813002 18.9914443,5.47078652 Z M3.42828045,8.99033429 L6.70828045,9.11033429 C6.98423821,9.1204303 7.19976173,9.3523227 7.18966571,9.62828045 C7.18069148,9.87357623 6.99647072,10.0711215 6.76182961,10.1049014 L6.67171955,10.1096657 L3.39171955,9.98966571 C3.11576179,9.9795697 2.90023827,9.7476773 2.91033429,9.47171955 C2.91930852,9.22642377 3.10352928,9.02887849 3.33817039,8.99509864 L3.42828045,8.99033429 Z M4.61326305,3.95787272 L4.68265719,4.01555267 L8.64265719,7.95555267 C8.83841304,8.15031986 8.83921451,8.46690134 8.64444733,8.66265719 C8.47132094,8.83666239 8.20194622,8.85662956 8.00673695,8.72212728 L7.93734281,8.66444733 L3.97734281,4.72444733 C3.78158696,4.52968014 3.78078549,4.21309866 3.97555267,4.01734281 C4.14867906,3.84333761 4.41805378,3.82337044 4.61326305,3.95787272 Z M9.43490301,2.9633029 L9.45524614,3.05121581 L9.90524614,6.29121581 C9.94323459,6.5647327 9.75230107,6.81725768 9.47878419,6.85524614 C9.23565806,6.88901365 9.00911814,6.74190455 8.93509699,6.5166971 L8.91475386,6.42878419 L8.46475386,3.18878419 C8.42676541,2.9152673 8.61769893,2.66274232 8.89121581,2.62475386 C9.13434194,2.59098635 9.36088186,2.73809545 9.43490301,2.9633029 Z" id="Combined-Shape" fill="#3366FF"></path>
        </g>
    </g>
</svg>