<?xml version="1.0" encoding="UTF-8"?>
<svg width="24px" height="24px" viewBox="0 0 24 24" version="1.1" xmlns="http://www.w3.org/2000/svg" xmlns:xlink="http://www.w3.org/1999/xlink">
    <g id="Vertical-Align" stroke="none" stroke-width="1" fill="none" fill-rule="evenodd">
        <rect id="Rectangle" x="0" y="0" width="24" height="24"></rect>
        <path d="M12.0535622,3.25320716 L12,3.25 C12.0528334,3.25 12.1043908,3.255463 12.1541382,3.26585493 C12.1554004,3.26748811 12.1574075,3.26791406 12.1594132,3.2683483 C12.1842458,3.27237604 12.2079585,3.27878952 12.2311756,3.28630441 C12.23416,3.28861179 12.2382014,3.2899488 12.2422335,3.29132112 L12.2433223,3.29035182 L12.2576958,3.29677411 C12.2583801,3.29702388 12.259064,3.29727468 12.2597477,3.29752651 C12.2710072,3.3003663 12.2815305,3.30453848 12.2919338,3.30893872 L12.3439414,3.33459041 C12.3449693,3.33512103 12.3459963,3.33565418 12.3470223,3.33618986 C12.4183213,3.37227472 12.4825389,3.42040073 12.5378168,3.47726316 L14.5301571,5.46949703 C14.8231458,5.76229473 14.8233007,6.23716844 14.530503,6.53015714 C14.2643232,6.79651051 13.8476675,6.82085241 13.553985,6.6030937 L13.4698429,6.53050297 L12.75,5.811 L12.75,18.188 L13.4698429,17.469497 C13.7628316,17.1766993 14.2377053,17.1768542 14.530503,17.4698429 C14.7966827,17.7361962 14.8207529,18.1528678 14.6028027,18.4464082 L14.5301571,18.530503 L12.5378168,20.5227368 C12.413246,20.6508785 12.243275,20.7346529 12.0538685,20.7480952 L12.0510744,20.746966 L12.0267055,20.74938 L12.0267055,20.74938 L12,20.75 L11.947,20.746 L11.948,20.747 L11.9217737,20.7459695 C11.8960617,20.7433048 11.8707355,20.739341 11.8458618,20.7341451 C11.8445996,20.7325119 11.8425925,20.7320859 11.8405868,20.7316517 C11.8157542,20.727624 11.7920415,20.7212105 11.7688244,20.7136956 C11.76584,20.7113882 11.7617986,20.7100512 11.7577665,20.7086789 L11.7566777,20.7096482 L11.7423042,20.7032259 C11.7416199,20.7029761 11.740936,20.7027253 11.7402523,20.7024735 C11.7289928,20.6996337 11.7184695,20.6954615 11.7080662,20.6910613 L11.6529777,20.6638101 L11.6529777,20.6638101 C11.5816787,20.6277253 11.5174611,20.5795993 11.4621832,20.5227368 L9.46984286,18.530503 C9.17685416,18.2377053 9.17669932,17.7628316 9.46949703,17.4698429 C9.73567676,17.2034895 10.1523325,17.1791476 10.446015,17.3969063 L10.5301571,17.469497 L11.25,18.189 L11.25,5.81 L10.5301571,6.53050297 C10.2371684,6.82330068 9.76229473,6.82314584 9.46949703,6.53015714 C9.2033173,6.26380378 9.1792471,5.84713222 9.39719728,5.55359178 L9.46984286,5.46949703 L11.4621832,3.47726316 C11.5393144,3.39792095 11.6338511,3.33558822 11.7396297,3.29642844 C11.7423706,3.2967473 11.7440316,3.29614339 11.7456943,3.29554554 C11.8077884,3.27172784 11.8749004,3.25709836 11.9446608,3.25201063 C11.9472411,3.25314901 11.9485809,3.25305631 11.9499209,3.25296718 C11.9629333,3.25067799 11.9813875,3.25 12,3.25 L12.0505671,3.253 C12.0515656,3.25306706 12.0525639,3.25313611 12.0535622,3.25320716 Z" id="Combined-Shape" fill="#3366FF"></path>
        <g id="Group" transform="translate(12.000000, 5.000000) rotate(-180.000000) translate(-12.000000, -5.000000) translate(9.000000, 3.000000)"></g>
    </g>
</svg>
