<svg viewBox="0 0 24 24" xmlns="http://www.w3.org/2000/svg"><path stroke="none" fill-rule="evenodd" d="M5.25,5.741037 C5.25,5.43119138 5.3322647,5.12690081 5.48838692,4.8592627 C5.97537742,4.02442185 7.04693344,3.74243343 7.88177429,4.22942392 L18.6114252,10.4883869 C18.8721815,10.6404948 19.0891561,10.8574693 19.2412639,11.1182257 C19.7282544,11.9530666 19.446266,13.0246226 18.6114252,13.5116131 L7.88177429,19.7705761 C7.61413619,19.9266983 7.30984561,20.008963 7,20.008963 C6.03350169,20.008963 5.25,19.2254613 5.25,18.258963 L5.25,5.741037 Z M6.75,5.741037 L6.75,18.258963 C6.75,18.3970342 6.86192881,18.508963 7,18.508963 C7.04426366,18.508963 7.08773374,18.4972109 7.12596776,18.4749077 L17.8556186,12.2159447 C17.9748816,12.1463747 18.0151657,11.9932952 17.9455956,11.8740322 C17.9238659,11.8367813 17.8928695,11.805785 17.8556186,11.7840553 L7.12596776,5.52509227 C7.00670478,5.4555222 6.85362535,5.49580626 6.78405527,5.61506924 C6.7617521,5.65330326 6.75,5.69677334 6.75,5.741037 Z"></path></svg>