<?xml version="1.0" encoding="UTF-8"?>
<svg width="24px" height="24px" viewBox="0 0 24 24" version="1.1" xmlns="http://www.w3.org/2000/svg" xmlns:xlink="http://www.w3.org/1999/xlink">
    <!-- Generator: Sketch 60.1 (88133) - https://sketch.com -->
    <title>Column</title>
    <desc>Created with Sketch.</desc>
    <g id="Column" stroke="none" stroke-width="1" fill="none" fill-rule="evenodd">
        <rect id="Rectangle" x="0" y="0" width="24" height="24"></rect>
        <path d="M6,3.75 C6.37969577,3.75 6.69349096,4.03215388 6.74315338,4.39822944 L6.75,4.5 L6.75,20.5 C6.75,20.9142136 6.41421356,21.25 6,21.25 C5.62030423,21.25 5.30650904,20.9678461 5.25684662,20.6017706 L5.25,20.5 L5.25,4.5 C5.25,4.08578644 5.58578644,3.75 6,3.75 Z M14,3.75 C14.3796958,3.75 14.693491,4.03215388 14.7431534,4.39822944 L14.75,4.5 L14.75,20.5 C14.75,20.9142136 14.4142136,21.25 14,21.25 C13.6203042,21.25 13.306509,20.9678461 13.2568466,20.6017706 L13.25,20.5 L13.25,4.5 C13.25,4.08578644 13.5857864,3.75 14,3.75 Z M10,3.75 C10.3796958,3.75 10.693491,4.03215388 10.7431534,4.39822944 L10.75,4.5 L10.75,20.5 C10.75,20.9142136 10.4142136,21.25 10,21.25 C9.62030423,21.25 9.30650904,20.9678461 9.25684662,20.6017706 L9.25,20.5 L9.25,4.5 C9.25,4.08578644 9.58578644,3.75 10,3.75 Z M18,3.75 C18.3796958,3.75 18.693491,4.03215388 18.7431534,4.39822944 L18.75,4.5 L18.75,20.5 C18.75,20.9142136 18.4142136,21.25 18,21.25 C17.6203042,21.25 17.306509,20.9678461 17.2568466,20.6017706 L17.25,20.5 L17.25,4.5 C17.25,4.08578644 17.5857864,3.75 18,3.75 Z" id="Combined-Shape" fill="#3366FF" fill-rule="nonzero"></path>
    </g>
</svg>