<?xml version="1.0" encoding="UTF-8"?>
<svg width="24px" height="24px" viewBox="0 0 24 24" version="1.1" xmlns="http://www.w3.org/2000/svg" xmlns:xlink="http://www.w3.org/1999/xlink">
    <!-- Generator: Sketch 60.1 (88133) - https://sketch.com -->
    <title>Effect</title>
    <desc>Created with Sketch.</desc>
    <g id="Effect" stroke="none" stroke-width="1" fill="none" fill-rule="evenodd">
        <rect id="Rectangle" x="0" y="0" width="24" height="24"></rect>
        <g id="Group-29" transform="translate(3.000000, 3.000000)" fill="#3366FF">
            <path d="M8.38764583,9.60673986 C8.65382556,9.87309322 8.67789576,10.2897648 8.45994558,10.5833052 L8.3873,10.6674 L1.53015714,17.5200727 C1.23716844,17.8128704 0.762294732,17.8127156 0.469497027,17.5197269 C0.203317296,17.2533735 0.1792471,16.836702 0.397197281,16.5431615 L0.469842857,16.4590668 L7.32698571,9.60639403 C7.61997442,9.31359632 8.09484812,9.31375116 8.38764583,9.60673986 Z M11.2857143,10.5290091 C11.6654101,10.5290091 11.9792052,10.811163 12.0288677,11.1772386 L12.0357143,11.2790091 L12.0357143,12.4211213 C12.0357143,12.8353348 11.6999278,13.1711213 11.2857143,13.1711213 C10.9060185,13.1711213 10.5922233,12.8889674 10.5425609,12.5228918 L10.5357143,12.4211213 L10.5357143,11.2790091 C10.5357143,10.8647956 10.8715007,10.5290091 11.2857143,10.5290091 Z M15.1603008,9.53380331 L15.2444429,9.60639403 L16.3873,10.7485062 C16.6802887,11.0413039 16.6804435,11.5161776 16.3876458,11.8091663 C16.1214661,12.0755196 15.7048103,12.0998615 15.4111278,11.8821028 L15.3269857,11.8095121 L14.1841286,10.6674 C13.8911399,10.3746023 13.890985,9.89972856 14.1837827,9.60673986 C14.4499625,9.34038649 14.8666182,9.31604459 15.1603008,9.53380331 Z M6.71428571,5.96056063 C7.12849928,5.96056063 7.46428571,6.29634706 7.46428571,6.71056063 C7.46428571,7.09025639 7.18213183,7.40405159 6.81605627,7.45371401 L6.71428571,7.46056063 L5.57142857,7.46056063 C5.15721501,7.46056063 4.82142857,7.12477419 4.82142857,6.71056063 C4.82142857,6.33086486 5.10358245,6.01706966 5.46965801,5.96740724 L5.57142857,5.96056063 L6.71428571,5.96056063 Z M17,5.96056063 C17.4142136,5.96056063 17.75,6.29634706 17.75,6.71056063 C17.75,7.09025639 17.4678461,7.40405159 17.1017706,7.45371401 L17,7.46056063 L15.8571429,7.46056063 C15.4429293,7.46056063 15.1071429,7.12477419 15.1071429,6.71056063 C15.1071429,6.33086486 15.3892967,6.01706966 15.7553723,5.96740724 L15.8571429,5.96056063 L17,5.96056063 Z M7.16030075,1.53901843 L7.24444286,1.61160915 L8.3873,2.75372128 C8.6802887,3.04651898 8.68044353,3.52139269 8.38764583,3.81438139 C8.1214661,4.08073476 7.70481033,4.10507666 7.41112782,3.88731795 L7.32698571,3.81472722 L6.18412857,2.6726151 C5.89113987,2.37981739 5.89098504,1.90494368 6.18378274,1.61195498 C6.44996247,1.34560162 6.86661824,1.32125971 7.16030075,1.53901843 Z M16.3876458,1.61195498 C16.6538256,1.87830835 16.6778958,2.2949799 16.4599456,2.58852035 L16.3873,2.6726151 L15.2444429,3.81472722 C14.9514542,4.10752493 14.4765804,4.10737009 14.1837827,3.81438139 C13.917603,3.54802803 13.8935328,3.13135648 14.111483,2.83781603 L14.1841286,2.75372128 L15.3269857,1.61160915 C15.6199744,1.31881145 16.0948481,1.31896628 16.3876458,1.61195498 Z M11.2857143,0.25 C11.6654101,0.25 11.9792052,0.532153882 12.0288677,0.898229443 L12.0357143,1 L12.0357143,2.14211213 C12.0357143,2.55632569 11.6999278,2.89211213 11.2857143,2.89211213 C10.9060185,2.89211213 10.5922233,2.60995824 10.5425609,2.24388268 L10.5357143,2.14211213 L10.5357143,1 C10.5357143,0.585786438 10.8715007,0.25 11.2857143,0.25 Z" id="Combined-Shape"></path>
        </g>
    </g>
</svg>